<?xml version="1.0" encoding="utf-8"?>
<!-- Generator: Adobe Illustrator 16.0.0, SVG Export Plug-In . SVG Version: 6.00 Build 0)  -->
<!DOCTYPE svg PUBLIC "-//W3C//DTD SVG 1.1//EN" "http://www.w3.org/Graphics/SVG/1.1/DTD/svg11.dtd">
<svg version="1.1" xmlns="http://www.w3.org/2000/svg" xmlns:xlink="http://www.w3.org/1999/xlink" x="0px" y="0px" width="50px"
	 height="50px" viewBox="0 0 50 50" enable-background="new 0 0 50 50" xml:space="preserve">
<g id="VamtigerProjectLogoBlack">
</g>
<g id="Circles">
</g>
<g id="Main">
</g>
<g id="vamtigerPrjectLogoSvg">
	<g id="vamtigerProjectLogo">
		<path id="main" fill="#FFFFFF" d="M43.609,40.626c0,0-1.725-11.1-7.651-15.625c5.927-4.526,7.651-15.627,7.651-15.627
			c-1.923,3.653-7.54,12.963-18.141,15.158C27.663,13.931,36.972,8.314,40.626,6.392c0,0-11.1,1.724-15.626,7.651
			C20.474,8.115,9.374,6.392,9.374,6.392c3.654,1.923,12.963,7.539,15.158,18.142C13.93,22.337,8.314,13.028,6.392,9.374
			c0,0,1.723,11.101,7.651,15.627c-5.927,4.525-7.651,15.625-7.651,15.625c1.922-3.653,7.539-12.963,18.141-15.157
			C22.336,36.07,13.027,41.687,9.374,43.608c0,0,11.1-1.724,15.626-7.651c4.526,5.928,15.626,7.651,15.626,7.651
			c-3.654-1.922-12.963-7.538-15.158-18.141C36.069,27.663,41.686,36.973,43.609,40.626z"/>
		<g id="circles">
			<circle fill="#FFFFFF" cx="2.78" cy="25" r="2.78"/>
			<circle fill="#FFFFFF" cx="25" cy="47.22" r="2.78"/>
			<circle fill="#FFFFFF" cx="47.22" cy="25" r="2.78"/>
			<circle fill="#FFFFFF" cx="25" cy="2.78" r="2.78"/>
		</g>
	</g>
</g>
</svg>
